<svg width="24" height="25" viewBox="0 0 24 25" fill="none" xmlns="http://www.w3.org/2000/svg">
<path d="M13.6 6.30313C13.6 7.18678 12.8837 7.90313 12 7.90313C11.1164 7.90313 10.4 7.18678 10.4 6.30313C10.4 5.41947 11.1164 4.70312 12 4.70312C12.8837 4.70312 13.6 5.41947 13.6 6.30313Z" fill="black"/>
<path d="M13.6 12.7031C13.6 13.5868 12.8837 14.3031 12 14.3031C11.1164 14.3031 10.4 13.5868 10.4 12.7031C10.4 11.8195 11.1164 11.1031 12 11.1031C12.8837 11.1031 13.6 11.8195 13.6 12.7031Z" fill="black"/>
<path d="M13.6 19.1031C13.6 19.9868 12.8837 20.7031 12 20.7031C11.1164 20.7031 10.4 19.9868 10.4 19.1031C10.4 18.2195 11.1164 17.5031 12 17.5031C12.8837 17.5031 13.6 18.2195 13.6 19.1031Z" fill="black"/>
</svg>
